<svg version="1.1" viewBox="0.0 0.0 321.2965879265092 241.11811023622047" fill="none" stroke="none" stroke-linecap="square" stroke-miterlimit="10" xmlns:xlink="http://www.w3.org/1999/xlink" xmlns="http://www.w3.org/2000/svg"><clipPath id="p.0"><path d="m0 0l321.2966 0l0 241.1181l-321.2966 0l0 -241.1181z" clip-rule="nonzero"/></clipPath><g clip-path="url(#p.0)"><path fill="#000000" fill-opacity="0.0" d="m0 0l321.2966 0l0 241.1181l-321.2966 0z" fill-rule="evenodd"/><g filter="url(#shadowFilter-p.1)"><use xlink:href="#p.1" transform="matrix(1.0 0.0 0.0 1.0 0.0 14.0)"/></g><defs><filter id="shadowFilter-p.1" filterUnits="userSpaceOnUse"><feGaussianBlur in="SourceAlpha" stdDeviation="2.0" result="blur"/><feComponentTransfer in="blur" color-interpolation-filters="sRGB"><feFuncR type="linear" slope="0" intercept="0.0"/><feFuncG type="linear" slope="0" intercept="0.0"/><feFuncB type="linear" slope="0" intercept="0.0"/><feFuncA type="linear" slope="0.5" intercept="0"/></feComponentTransfer></filter></defs><g id="p.1"><path fill="#000000" fill-opacity="0.0" d="m0 0l321.22833 0l0 242.3937l-321.22833 0z" fill-rule="evenodd"/><path fill="#eb5555" d="m37.703125 130.62437l65.328125 26.859375l-4.796875 14.171875l-79.484375 -33.671875l0 -14.71875l79.484375 -33.671875l4.796875 14.171875l-65.328125 26.859375zm88.13539 89.0625l-17.484375 0l62.375 -178.125l17.125 0l-62.015625 178.125zm67.343506 -115.921875l4.78125 -14.171875l79.499985 33.671875l0 14.71875l-79.499985 33.671875l-4.78125 -14.171875l65.32811 -26.859375l-65.32811 -26.859375z" fill-rule="nonzero"/></g><g mask="url(#mask-p.2)"><use xlink:href="#p.2" transform="matrix(1.0 0.0 0.0 -1.0 0.0 474.84251968503935)"/></g><defs><mask id="mask-p.2" maskUnits="userSpaceOnUse" x="-7.5" y="232.42125984251967" width="336.2283464566929" height="15.944881889763792"><linearGradient gradientUnits="userSpaceOnUse" id="gradient-p.2" x1="-1.4999999957512173" y1="240.420086139123" x2="-1.500008995100865" y2="242.90610114396526"><stop offset="0%" stop-color="#ffffff" stop-opacity="0.14000000059604645"/><stop offset="100%" stop-color="#ffffff" stop-opacity="0.0"/></linearGradient><rect fill="url(#gradient-p.2)" x="-7.5" y="232.42125984251967" width="336.2283464566929" height="15.944881889763792"/></mask></defs><g id="p.2"><g filter="url(#shadowFilter-p.3)"><use xlink:href="#p.3" transform="matrix(1.0 0.0 0.0 1.0 0.0 2.0)"/></g><defs><filter id="shadowFilter-p.3" filterUnits="userSpaceOnUse"><feGaussianBlur in="SourceAlpha" stdDeviation="2.0" result="blur"/><feComponentTransfer in="blur" color-interpolation-filters="sRGB"><feFuncR type="linear" slope="0" intercept="0.2627451"/><feFuncG type="linear" slope="0" intercept="0.2627451"/><feFuncB type="linear" slope="0" intercept="0.2627451"/><feFuncA type="linear" slope="0.58" intercept="0"/></feComponentTransfer></filter></defs><g id="p.3"><path fill="#000000" fill-opacity="0.0" d="m0 231.97638l321.22833 0.94488525" fill-rule="evenodd"/><path stroke="#000000" stroke-width="3.0" stroke-linejoin="round" stroke-linecap="butt" d="m10.281216 232.00662l300.66592 0.8843994" fill-rule="evenodd"/><path fill="#000000" stroke="#000000" stroke-width="3.0" stroke-linecap="butt" d="m10.281215 232.00662l3.3836603 -3.3638153l-9.279188 3.346466l9.25934 3.401001z" fill-rule="evenodd"/><path fill="#000000" stroke="#000000" stroke-width="3.0" stroke-linecap="butt" d="m310.94714 232.89102l-3.383667 3.3638153l9.279175 -3.3464813l-9.259338 -3.401001z" fill-rule="evenodd"/></g></g></g></svg>